<svg width="372" height="278" viewBox="0 0 372 278" fill="none" xmlns="http://www.w3.org/2000/svg">
<path d="M372 244.383H0V244.18H372V244.383Z" fill="#EBEBEB"/>
<path d="M310.09 256.22H334.732V256.423H310.09V256.22Z" fill="#EBEBEB"/>
<path d="M239.943 258.215H246.425V258.418H239.943V258.215Z" fill="#EBEBEB"/>
<path d="M295.068 249.287H309.348V249.49H295.068V249.287Z" fill="#EBEBEB"/>
<path d="M39.0229 250.538H71.1594V250.741H39.0229V250.538V250.538Z" fill="#EBEBEB"/>
<path d="M77.7759 250.538H82.5018V250.741H77.7759V250.538Z" fill="#EBEBEB"/>
<path d="M97.8271 253.683H167.535V253.886H97.8271V253.683Z" fill="#EBEBEB"/>
<path d="M176.346 210.969H32.6767C30.3475 210.969 28.4233 209.075 28.4233 206.708V4.39657C28.4233 2.06299 30.3137 0.135254 32.6767 0.135254H176.346C178.675 0.135254 180.599 2.02917 180.599 4.39657V206.708C180.599 209.041 178.675 210.969 176.346 210.969ZM32.6767 0.304354C30.4488 0.304354 28.6259 2.13063 28.6259 4.36275V206.674C28.6259 208.906 30.4488 210.732 32.6767 210.732H176.346C178.574 210.732 180.396 208.906 180.396 206.674V4.39657C180.396 2.16445 178.574 0.338174 176.346 0.338174H32.6767V0.304354Z" fill="#EBEBEB"/>
<path d="M337.264 210.969H193.595C191.266 210.969 189.342 209.075 189.342 206.708V4.39657C189.342 2.06299 191.232 0.135254 193.595 0.135254H337.264C339.593 0.135254 341.517 2.02917 341.517 4.39657V206.708C341.517 209.041 339.593 210.969 337.264 210.969ZM193.595 0.304354C191.367 0.304354 189.544 2.13063 189.544 4.36275V206.674C189.544 208.906 191.367 210.732 193.595 210.732H337.264C339.492 210.732 341.315 208.906 341.315 206.674V4.39657C341.315 2.16445 339.492 0.338174 337.264 0.338174H193.595V0.304354Z" fill="#EBEBEB"/>
<path d="M215.537 21.6448H318.057V88.9127H215.537V21.6448Z" fill="#E6E6E6"/>
<path d="M212.398 21.6448H316.571V88.9127H212.398V21.6448Z" fill="#F0F0F0"/>
<path d="M215.537 88.9126H318.057V102.102H215.537V88.9126Z" fill="#E6E6E6"/>
<path d="M207.199 88.9126H311.373V102.102H207.199V88.9126Z" fill="#F0F0F0"/>
<path d="M216.786 84.516V26.0413H312.217V84.516H216.786Z" fill="#FAFAFA"/>
<path d="M271.674 84.516L259.488 26.0413H278.493L290.68 84.516H271.674Z" fill="white"/>
<path d="M309.854 79.8489V28.8823C309.854 28.7132 309.989 28.5779 310.157 28.5779C310.326 28.5779 310.461 28.7132 310.461 28.8823V79.8151C310.461 79.9842 310.326 80.1195 310.157 80.1195C309.989 80.1533 309.854 80.018 309.854 79.8489Z" fill="#F0F0F0"/>
<path d="M260.164 84.516L247.978 26.0413H255.404L267.59 84.516H260.164Z" fill="white"/>
<path d="M216.786 84.516V26.0413H217.326V84.516H216.786Z" fill="#E6E6E6"/>
<path opacity="0.6" d="M211.756 27.7324H314.276L313.87 32.6363H211.351L211.756 27.7324Z" fill="#EBEBEB"/>
<path opacity="0.6" d="M211.756 35.8154H314.276L313.87 40.7193H211.351L211.756 35.8154Z" fill="#EBEBEB"/>
<path opacity="0.6" d="M211.756 43.8645H314.276L313.87 48.7684H211.351L211.756 43.8645Z" fill="#EBEBEB"/>
<path opacity="0.6" d="M211.756 51.9136H314.276L313.87 56.8175H211.351L211.756 51.9136Z" fill="#EBEBEB"/>
<path opacity="0.6" d="M211.756 59.9629H314.276L313.87 64.8668H211.351L211.756 59.9629Z" fill="#EBEBEB"/>
<path opacity="0.6" d="M211.756 68.012H314.276L313.87 72.9159H211.351L211.756 68.012Z" fill="#EBEBEB"/>
<path d="M303.305 199.538H281.802V195.276H303.305V199.538Z" fill="#E6E6E6"/>
<path d="M241.294 146.508H245.277V244.214H241.294V146.508Z" fill="#E6E6E6"/>
<path d="M227.555 195.31H281.836V199.538H227.555V195.31Z" fill="#F5F5F5"/>
<path d="M303.305 222.772H281.802V218.511H303.305V222.772Z" fill="#E6E6E6"/>
<path d="M227.555 218.511H281.836V222.772H227.555V218.511Z" fill="#F5F5F5"/>
<path d="M303.305 153.069H281.802V148.808H303.305V153.069Z" fill="#E6E6E6"/>
<path d="M227.555 148.842H281.836V153.103H227.555V148.842Z" fill="#F5F5F5"/>
<path d="M303.305 176.304H281.802V172.042H303.305V176.304Z" fill="#E6E6E6"/>
<path d="M227.555 172.076H281.836V176.337H227.555V172.076Z" fill="#F5F5F5"/>
<path d="M295.575 146.508H299.558V244.214H295.575V146.508Z" fill="#E6E6E6"/>
<path d="M277.853 146.508H281.836V244.214H277.853V146.508Z" fill="#F5F5F5"/>
<path d="M227.555 146.508H231.538V244.214H227.555V146.508Z" fill="#F5F5F5"/>
<path d="M48.6436 165.278H89.253V244.214H48.6436V165.278Z" fill="#E6E6E6"/>
<path d="M59.4795 244.214H48.6436V233.324H70.8555L59.4795 244.214Z" fill="#FAFAFA"/>
<path d="M159.366 165.278H199.975V244.214H159.366V165.278Z" fill="#E6E6E6"/>
<path d="M48.6436 165.278H168.818V240.46H48.6436V165.278V165.278Z" fill="#FAFAFA"/>
<path d="M146.606 233.324H168.818V244.214H157.982L146.606 233.324Z" fill="#FAFAFA"/>
<path d="M57.0488 193.281H160.412V212.085H57.0488V193.281Z" fill="#F0F0F0"/>
<path d="M57.0488 216.109H160.412V234.913H57.0488V216.109Z" fill="#F0F0F0"/>
<path d="M73.2861 193.755V191.658H144.175V193.755C144.175 194.6 143.5 195.31 142.623 195.31H74.8389C73.995 195.31 73.2861 194.6 73.2861 193.755Z" fill="#FAFAFA"/>
<path d="M57.0488 170.453H160.412V189.257H57.0488V170.453Z" fill="#F0F0F0"/>
<path d="M73.2861 170.926V168.829H144.175V170.926C144.175 171.771 143.5 172.482 142.623 172.482H74.8389C73.995 172.482 73.2861 171.771 73.2861 170.926Z" fill="#FAFAFA"/>
<path d="M73.2861 216.583V214.486H144.175V216.583C144.175 217.428 143.5 218.139 142.623 218.139H74.8389C73.995 218.139 73.2861 217.428 73.2861 216.583Z" fill="#FAFAFA"/>
<path d="M55.0908 21.6448H157.61V88.9127H55.0908V21.6448Z" fill="#E6E6E6"/>
<path d="M51.9854 21.6448H156.159V88.9127H51.9854V21.6448Z" fill="#F0F0F0"/>
<path d="M55.0908 88.9126H157.61V102.102H55.0908V88.9126Z" fill="#E6E6E6"/>
<path d="M46.7529 88.9126H150.926V102.102H46.7529V88.9126Z" fill="#F0F0F0"/>
<path d="M56.3735 84.516V26.0413H151.804V84.516H56.3735Z" fill="#FAFAFA"/>
<path d="M111.228 84.516L99.042 26.0413H118.047L130.233 84.516H111.228Z" fill="white"/>
<path d="M149.441 79.8489V28.8823C149.441 28.7132 149.576 28.5779 149.745 28.5779C149.914 28.5779 150.049 28.7132 150.049 28.8823V79.8151C150.049 79.9842 149.914 80.1195 149.745 80.1195C149.576 80.1533 149.441 80.018 149.441 79.8489Z" fill="#F0F0F0"/>
<path d="M99.7511 84.516L87.5649 26.0413H94.9914L107.178 84.516H99.7511Z" fill="white"/>
<path d="M56.3735 84.516V26.0413H56.9136V84.516H56.3735Z" fill="#E6E6E6"/>
<path opacity="0.6" d="M51.3441 27.7324H153.863L153.458 32.6363H50.939L51.3441 27.7324Z" fill="#EBEBEB"/>
<path opacity="0.6" d="M51.3441 30.5056H153.863L153.458 35.4095H50.939L51.3441 30.5056Z" fill="#EBEBEB"/>
<path opacity="0.6" d="M51.3441 33.2788H153.863L153.458 38.1827H50.939L51.3441 33.2788Z" fill="#EBEBEB"/>
<path opacity="0.6" d="M51.3441 36.052H153.863L153.458 40.9559H50.939L51.3441 36.052Z" fill="#EBEBEB"/>
<path opacity="0.6" d="M51.3441 38.8252H153.863L153.458 43.7291H50.939L51.3441 38.8252Z" fill="#EBEBEB"/>
<path opacity="0.6" d="M51.3441 41.5986H153.863L153.458 46.5025H50.939L51.3441 41.5986Z" fill="#EBEBEB"/>
<path d="M71.4292 123.274H74.9737V162.843H71.4292V123.274Z" fill="#F5F5F5"/>
<path d="M71.9019 123.274H72.9146V162.843H71.9019V123.274Z" fill="#FAFAFA"/>
<path d="M73.3193 123.274H73.7244V162.843H73.3193V123.274Z" fill="#FAFAFA"/>
<path d="M61.5722 161.964H84.7969C85.6408 161.964 86.2822 162.64 86.2822 163.452V165.244H60.0869V163.452C60.0869 162.64 60.762 161.964 61.5722 161.964Z" fill="#F0F0F0"/>
<path d="M65.8257 146.846V120.906C65.8257 120.331 66.2983 119.892 66.8384 119.892C67.4123 119.892 67.8511 120.365 67.8511 120.906V146.846C67.8511 147.421 67.3785 147.861 66.8384 147.861C66.2645 147.861 65.8257 147.387 65.8257 146.846Z" fill="#F0F0F0"/>
<path d="M60.9983 110.49H85.4045L89.0502 132.709H57.3188L60.9983 110.49Z" fill="#E0E0E0"/>
<path d="M330.243 269.444C330.243 274.111 265.666 277.899 186 277.899C106.334 277.899 41.7573 274.111 41.7573 269.444C41.7573 264.776 106.334 260.989 186 260.989C265.666 260.989 330.243 264.776 330.243 269.444Z" fill="#F5F5F5"/>
<path d="M77.7079 123.815L76.729 110.084L77.4717 110.016L78.4506 123.747L77.7079 123.815Z" fill="#BBFA34"/>
<path d="M78.5857 136.092L78.2144 130.917L78.957 130.85L79.3283 136.024L78.5857 136.092Z" fill="#BBFA34"/>
<path d="M251.252 194.093H91.9197C88.3078 194.093 85.1684 191.15 84.8983 187.532L77.0667 78.5977C76.7967 74.979 79.531 72.0366 83.143 72.0366H242.475C246.087 72.0366 249.226 74.979 249.496 78.5977L257.328 187.532C257.598 191.15 254.864 194.093 251.252 194.093Z" fill="#BBFA34"/>
<path d="M251.859 194.093H92.5272C88.9152 194.093 85.7758 191.15 85.5057 187.532L77.6742 78.5977C77.4041 74.979 80.1384 72.0366 83.7504 72.0366H243.082C246.694 72.0366 249.834 74.979 250.104 78.5977L257.935 187.532C258.206 191.15 255.471 194.093 251.859 194.093Z" fill="#BBFA34"/>
<path opacity="0.5" d="M251.859 194.093H92.5272C88.9152 194.093 85.7758 191.15 85.5057 187.532L77.6742 78.5977C77.4041 74.979 80.1384 72.0366 83.7504 72.0366H243.082C246.694 72.0366 249.834 74.979 250.104 78.5977L257.935 187.532C258.206 191.15 255.471 194.093 251.859 194.093Z" fill="white"/>
<path d="M243.859 75.351C247.977 75.6892 248.045 81.8782 243.926 81.8782H84.3243C80.206 81.8782 79.3958 75.6553 83.4466 75.351C83.6154 75.351 83.7842 75.3171 83.9867 75.3171H243.319C243.521 75.3171 243.69 75.3171 243.859 75.351Z" fill="#BBFA34"/>
<path d="M88.1386 78.5977C88.2061 79.4432 87.5648 80.1196 86.7546 80.1196C85.9107 80.1196 85.2018 79.4432 85.1343 78.5977C85.0668 77.7522 85.7081 77.1096 86.5183 77.1096C87.3285 77.1096 88.0711 77.7522 88.1386 78.5977Z" fill="#FAFAFA"/>
<path d="M93.27 78.5977C93.3375 79.4432 92.6961 80.1196 91.886 80.1196C91.042 80.1196 90.3331 79.4432 90.2656 78.5977C90.1981 77.7522 90.8395 77.1096 91.6497 77.1096C92.4598 77.1096 93.2025 77.7522 93.27 78.5977Z" fill="#FAFAFA"/>
<path d="M98.3671 78.5977C98.4347 79.4432 97.7933 80.1196 96.9831 80.1196C96.1392 80.1196 95.4303 79.4432 95.3628 78.5977C95.2953 77.7522 95.9367 77.1096 96.7468 77.1096C97.557 77.1096 98.2996 77.7522 98.3671 78.5977Z" fill="#FAFAFA"/>
<path d="M247.64 183.203H95.194C93.8775 183.203 92.7298 182.121 92.6623 180.835L86.2147 91.2463C86.1134 89.9273 87.0924 88.8789 88.4089 88.8789H240.855C242.171 88.8789 243.319 89.9611 243.386 91.2463L249.834 180.835C249.935 182.154 248.956 183.203 247.64 183.203Z" fill="white"/>
<path d="M155.551 149.078L152.75 110.016H173.442L180.97 114.548L183.468 149.078H155.551V149.078Z" fill="white"/>
<path d="M183.435 149.45H155.552C155.349 149.45 155.214 149.315 155.18 149.112L152.378 110.05C152.378 109.949 152.412 109.847 152.48 109.78C152.547 109.712 152.648 109.678 152.75 109.678H173.443C173.51 109.678 173.578 109.712 173.645 109.746L181.173 114.278C181.274 114.345 181.342 114.447 181.342 114.548L183.84 149.078C183.84 149.18 183.806 149.281 183.738 149.349C183.603 149.417 183.502 149.45 183.435 149.45ZM155.889 148.74H183.03L180.599 114.785L173.341 110.388H153.155L155.889 148.74Z" fill="#BBFA34"/>
<path d="M176.177 116.036L173.409 110.016L180.936 114.548L176.177 116.036Z" fill="#EBEBEB"/>
<path d="M176.177 116.408C176.042 116.408 175.907 116.341 175.839 116.205L173.071 110.185C173.004 110.05 173.038 109.881 173.173 109.78C173.274 109.678 173.476 109.644 173.611 109.746L181.139 114.278C181.274 114.345 181.342 114.481 181.308 114.616C181.274 114.751 181.207 114.886 181.072 114.92L176.312 116.408C176.244 116.408 176.211 116.408 176.177 116.408ZM174.219 110.963L176.346 115.63L180.025 114.481L174.219 110.963Z" fill="#BBFA34"/>
<path d="M164.396 127.637C164.464 128.516 163.788 129.226 162.944 129.226C162.067 129.226 161.324 128.516 161.257 127.637C161.189 126.757 161.864 126.047 162.708 126.047C163.552 126.047 164.328 126.757 164.396 127.637Z" fill="#BBFA34"/>
<path d="M174.624 127.637C174.692 128.516 174.016 129.226 173.172 129.226C172.295 129.226 171.552 128.516 171.485 127.637C171.417 126.757 172.092 126.047 172.936 126.047C173.814 126.047 174.557 126.757 174.624 127.637Z" fill="#BBFA34"/>
<path d="M177.493 137.85C177.291 137.85 177.156 137.715 177.122 137.512C176.953 134.976 172.97 132.913 168.278 132.913C165.172 132.913 162.37 133.826 160.986 135.348C160.379 136.024 160.075 136.734 160.142 137.478C160.142 137.681 160.007 137.85 159.805 137.85C159.602 137.85 159.434 137.715 159.434 137.512C159.366 136.565 159.737 135.652 160.48 134.84C161.999 133.217 165.003 132.202 168.312 132.202C173.476 132.202 177.662 134.502 177.899 137.478C177.865 137.681 177.73 137.85 177.493 137.85C177.527 137.85 177.527 137.85 177.493 137.85Z" fill="#BBFA34"/>
<path d="M158.59 124.424C158.489 124.424 158.421 124.39 158.354 124.322C158.219 124.187 158.185 123.95 158.32 123.815L159.906 122.124C160.041 121.989 160.278 121.955 160.413 122.09C160.548 122.226 160.582 122.462 160.447 122.598L158.86 124.289C158.792 124.39 158.691 124.424 158.59 124.424Z" fill="#BBFA34"/>
<path d="M176.751 124.424C176.649 124.424 176.582 124.39 176.514 124.322L174.691 122.631C174.556 122.496 174.523 122.259 174.658 122.124C174.793 121.989 175.029 121.955 175.164 122.09L176.987 123.781C177.122 123.917 177.156 124.153 177.021 124.289C176.953 124.39 176.852 124.424 176.751 124.424Z" fill="#BBFA34"/>
<path d="M150.488 156.823H152.176L154.606 160.07L154.37 156.823H156.058L156.463 162.674H154.775L152.378 159.461L152.614 162.674H150.927L150.488 156.823Z" fill="#BBFA34"/>
<path d="M157.239 159.732C157.172 158.785 157.374 158.041 157.881 157.5C158.387 156.959 159.096 156.688 160.041 156.688C161.02 156.688 161.763 156.959 162.336 157.466C162.91 157.973 163.214 158.717 163.282 159.664C163.315 160.341 163.248 160.915 163.045 161.355C162.843 161.795 162.539 162.133 162.134 162.37C161.729 162.606 161.189 162.742 160.547 162.742C159.906 162.742 159.332 162.64 158.893 162.437C158.454 162.234 158.083 161.896 157.779 161.457C157.442 160.983 157.273 160.408 157.239 159.732ZM159.028 159.732C159.062 160.307 159.197 160.746 159.433 161.017C159.67 161.288 159.973 161.389 160.345 161.389C160.716 161.389 161.02 161.254 161.222 161.017C161.425 160.78 161.493 160.307 161.459 159.664C161.425 159.123 161.29 158.717 161.054 158.447C160.817 158.21 160.514 158.075 160.142 158.075C159.771 158.075 159.501 158.21 159.298 158.447C159.062 158.717 158.995 159.157 159.028 159.732Z" fill="#BBFA34"/>
<path d="M166.759 156.823H169.426C169.966 156.823 170.371 156.891 170.708 157.026C171.046 157.161 171.316 157.364 171.552 157.635C171.789 157.905 171.957 158.21 172.092 158.582C172.227 158.954 172.295 159.326 172.329 159.698C172.362 160.307 172.329 160.814 172.227 161.152C172.126 161.49 171.924 161.795 171.687 162.032C171.451 162.268 171.181 162.404 170.911 162.505C170.54 162.606 170.168 162.674 169.864 162.674H167.198L166.759 156.823ZM168.649 158.142L168.885 161.321H169.324C169.696 161.321 169.966 161.287 170.134 161.186C170.303 161.118 170.405 160.949 170.472 160.746C170.54 160.543 170.573 160.205 170.54 159.732C170.506 159.123 170.371 158.683 170.134 158.447C169.932 158.21 169.561 158.108 169.122 158.108H168.649V158.142Z" fill="#BBFA34"/>
<path d="M176.65 161.693H174.59L174.388 162.64H172.565L174.32 156.79H176.278L178.877 162.64H176.987L176.65 161.693ZM176.211 160.408L175.401 158.311L174.928 160.408H176.211Z" fill="#BBFA34"/>
<path d="M178.101 156.823H183.57L183.671 158.277H181.848L182.152 162.674H180.363L180.059 158.277H178.236L178.101 156.823Z" fill="#BBFA34"/>
<path d="M187.755 161.693H185.696L185.494 162.64H183.671L185.426 156.79H187.384L189.983 162.64H188.093L187.755 161.693ZM187.283 160.408L186.473 158.311L186 160.408H187.283Z" fill="#BBFA34"/>
<path d="M263.135 88.1687C263.81 87.8305 264.586 87.3908 265.329 86.985C266.072 86.5791 266.814 86.1395 267.557 85.6998C269.008 84.7867 270.494 83.9073 271.878 82.9266C274.68 80.9988 277.313 78.8344 279.709 76.467C280.013 76.1964 280.283 75.8582 280.587 75.5538L281.026 75.1142L281.228 74.8774L281.33 74.776C281.363 74.7421 281.363 74.7421 281.33 74.776L281.296 74.8098C281.195 75.0127 281.262 74.9451 281.33 74.7421C281.363 74.573 281.431 74.2687 281.431 73.9305C281.465 72.5777 281.228 70.8867 280.891 69.2295C280.216 65.8813 279.237 62.4317 278.224 59.0835L281.127 57.7983C282.95 61.0451 284.435 64.3594 285.684 67.9443C286.258 69.7706 286.798 71.5969 286.967 73.829C287.001 74.4039 287.001 75.0127 286.9 75.6891C286.798 76.3655 286.63 77.211 285.988 78.1241L285.853 78.2932L285.752 78.4285L285.651 78.5638L285.414 78.8344L284.942 79.4093C284.638 79.7813 284.334 80.1533 283.996 80.5254C281.431 83.3662 278.562 85.9027 275.524 88.101C274.004 89.2171 272.452 90.2655 270.865 91.2125C270.055 91.6859 269.245 92.1594 268.435 92.6329C267.591 93.1064 266.814 93.5122 265.869 93.9519L263.135 88.1687Z" fill="#FFB573"/>
<path d="M256.518 263.424C257.092 263.424 257.734 263.288 258.173 263.187C258.24 263.187 258.274 263.119 258.274 263.085C258.274 263.018 258.274 262.984 258.206 262.95C258.004 262.815 256.113 261.597 255.371 261.902C255.269 261.969 255.101 262.071 255.067 262.308C255.033 262.646 255.101 262.916 255.303 263.085C255.607 263.356 256.046 263.424 256.518 263.424ZM257.767 262.984C256.687 263.187 255.877 263.153 255.539 262.882C255.404 262.747 255.371 262.578 255.404 262.341C255.438 262.206 255.472 262.172 255.539 262.138C255.877 262.003 256.991 262.51 257.767 262.984Z" fill="#5B6A3B"/>
<path d="M258.139 263.187C258.172 263.187 258.206 263.187 258.206 263.153C258.24 263.119 258.274 263.086 258.274 263.018C258.274 262.95 258.274 261.158 257.598 260.549C257.43 260.38 257.193 260.312 256.957 260.346C256.586 260.38 256.484 260.617 256.451 260.752C256.316 261.462 257.43 262.815 258.037 263.153C258.105 263.187 258.105 263.187 258.139 263.187ZM257.092 260.684C257.227 260.684 257.328 260.718 257.43 260.82C257.835 261.192 257.97 262.172 258.004 262.781C257.396 262.308 256.721 261.293 256.788 260.853C256.788 260.786 256.856 260.684 257.025 260.684C257.025 260.684 257.058 260.684 257.092 260.684Z" fill="#5B6A3B"/>
<path d="M257.598 69.5339C256.89 73.2541 255.337 80.7283 257.936 83.231C257.936 83.231 256.923 86.985 250.071 86.985C242.509 86.985 246.459 83.231 246.459 83.231C250.577 82.2502 250.476 79.1726 249.767 76.2979L257.598 69.5339Z" fill="#FFB573"/>
<path d="M244.974 84.719C243.792 84.8881 244.805 81.8105 245.277 81.4723C246.391 80.7283 260.805 79.6798 260.704 81.4385C260.637 82.1825 260.299 83.6706 259.658 84.1779C259.05 84.6514 255.337 83.1633 244.974 84.719Z" fill="#8FC717"/>
<path d="M247.337 83.6705C246.391 83.9749 246.493 80.8973 246.796 80.5253C247.539 79.646 259.185 76.6698 259.556 78.3608C259.692 79.1048 259.759 80.5591 259.354 81.134C258.949 81.6752 255.506 80.762 247.337 83.6705Z" fill="#8FC717"/>
<path d="M242.982 62.8713C242.88 62.8713 242.813 62.8375 242.745 62.7698C241.901 61.7552 240.821 61.8567 240.821 61.8567C240.653 61.8905 240.517 61.7552 240.484 61.5861C240.45 61.417 240.585 61.2817 240.754 61.2479C240.821 61.2479 242.172 61.1126 243.218 62.364C243.319 62.4993 243.319 62.6684 243.184 62.7698C243.117 62.8375 243.049 62.8713 242.982 62.8713Z" fill="#263238"/>
<path d="M241.901 70.0411C241.901 70.0411 240.821 70.4469 240.079 69.872C240.923 68.7221 241.564 66.49 241.564 66.49L241.901 70.0411Z" fill="#FF5652"/>
<path d="M241.935 65.6108C241.969 66.1181 241.766 66.5578 241.429 66.5916C241.091 66.6254 240.787 66.2534 240.754 65.7461C240.72 65.2388 240.922 64.7991 241.26 64.7653C241.564 64.7315 241.868 65.1035 241.935 65.6108Z" fill="#263238"/>
<path d="M240.146 64.5286L241.395 64.7653C240.855 65.4079 240.146 64.5286 240.146 64.5286Z" fill="#263238"/>
<path d="M265.396 263.052H259.151L259.624 248.577H265.869L265.396 263.052Z" fill="#FFB573"/>
<path d="M258.645 262.341H265.666C265.936 262.341 266.139 262.51 266.173 262.781L266.983 268.327C267.05 268.902 266.578 269.443 265.97 269.443C263.539 269.41 262.358 269.274 259.286 269.274C257.396 269.274 254.628 269.477 251.995 269.477C249.429 269.477 249.227 266.873 250.341 266.636C255.235 265.588 256.012 264.134 257.632 262.747C257.902 262.477 258.273 262.341 258.645 262.341Z" fill="#263238"/>
<path d="M265.633 256.051H259.388L259.624 248.611H265.869L265.633 256.051Z" fill="black"/>
<path d="M240.585 91.8889C236.737 90.367 233.057 88.7437 229.378 86.8498C225.732 84.9897 222.12 82.9943 218.677 80.3225C217.799 79.6461 216.955 78.9021 216.145 78.0228C215.943 77.786 215.74 77.5831 215.537 77.3464C215.335 77.0758 215.166 76.9067 214.896 76.5009C214.39 75.7906 214.018 74.8099 213.917 73.7953C213.816 72.8145 213.985 71.8675 214.288 71.0897C214.559 70.3118 214.93 69.703 215.335 69.1619C216.111 68.0797 216.989 67.268 217.867 66.524C219.622 65.0697 221.445 64.0213 223.302 63.0405C224.213 62.5332 225.158 62.0936 226.103 61.6877C227.049 61.2819 227.994 60.876 229.006 60.5378L230.323 63.4125C227.082 65.4756 223.707 67.7077 221.242 70.2442C220.635 70.8529 220.128 71.5293 219.791 72.1043C219.453 72.6792 219.453 73.1189 219.487 73.085C219.521 73.085 219.521 73.085 219.588 73.1527L219.892 73.4571C219.993 73.5923 220.162 73.7276 220.297 73.8629C220.871 74.404 221.58 74.9451 222.289 75.4863C223.774 76.5347 225.394 77.5155 227.082 78.4286C228.77 79.3756 230.492 80.2549 232.247 81.1004C235.758 82.7914 239.404 84.4147 242.948 85.869L240.585 91.8889Z" fill="#FFB573"/>
<path d="M228.736 63.9536C226.981 61.9244 228.466 57.5278 228.466 57.5278L233.158 59.1512L232.112 61.3833C231.471 62.7699 230.222 63.7169 228.736 63.9536Z" fill="#FFB573"/>
<path d="M233.125 59.1512L228.433 57.5278L229.378 53.2327L233.125 54.3149V59.1512Z" fill="#FFB573"/>
<path d="M279.709 60.9774C277.144 60.1995 277.211 55.2956 277.211 55.2956L282.038 54.1458L281.498 59.3878L279.709 60.9774Z" fill="#FFB573"/>
<path d="M282.038 54.1457L277.211 55.2956L276.57 51.9812L279.709 50.4932L282.038 54.1457Z" fill="#FFB573"/>
<path d="M258.577 62.2288C258.814 68.4179 259.016 71.022 256.248 74.5054C252.062 79.7137 244.399 78.6315 242.34 72.6453C240.484 67.2342 240.416 58.0351 246.188 54.9913C251.86 51.9814 258.341 56.0398 258.577 62.2288Z" fill="#FFB573"/>
<path d="M245.851 66.0165C242.914 62.8036 237.243 57.3586 243.218 52.3194C246.661 49.4109 252.4 51.9812 254.729 50.2564C257.024 48.5316 262.628 49.3433 264.215 57.6292C265.902 66.2871 261.919 71.8335 255.843 74.4715C249.935 77.0756 247.606 69.6352 245.851 66.0165Z" fill="#263238"/>
<path d="M254.729 47.2803C257.531 45.3525 261.447 46.198 263.506 49.1404C265.565 52.1165 264.957 56.0734 262.156 58.035C259.354 59.9627 255.438 59.1172 253.379 56.1749C251.32 53.1987 251.927 49.208 254.729 47.2803Z" fill="#407BFF"/>
<path d="M254.931 50.8652C254.054 45.8599 258.78 42.0382 265.092 43.8983C271.405 45.7584 268.063 51.3725 266.78 55.8368C265.497 60.301 268.873 64.5623 270.291 61.1465C271.708 57.7307 269.312 56.6823 269.312 56.6823C269.312 56.6823 275.996 58.4071 269.784 65.9828C263.573 73.5584 257.936 65.2049 259.455 60.2672C260.67 56.2764 255.775 55.5662 254.931 50.8652Z" fill="#263238"/>
<path d="M245.784 60.4702L237.311 59.8953C237.311 59.8953 236.804 56.8853 238.121 54.687C240.889 50.0198 245.784 51.2374 248.653 52.7254L245.784 60.4702Z" fill="#263238"/>
<path d="M236.298 58.4409C236.196 58.4409 236.095 58.3394 236.095 58.2379C236.095 58.1027 236.298 55.1265 238.121 53.2326C242.475 48.7007 247.606 52.4547 249.058 53.7061C249.125 53.7737 249.159 53.8752 249.092 53.9766C249.024 54.0443 248.923 54.0781 248.822 54.0104C247.404 52.7929 242.509 49.1742 238.391 53.5032C236.669 55.2956 236.467 58.2379 236.467 58.2718C236.467 58.3732 236.399 58.4409 236.298 58.4409Z" fill="#263238"/>
<path d="M246.897 65.7798C246.897 66.9973 246.357 68.181 245.682 68.9589C244.669 70.1764 243.488 69.5676 243.218 68.2487C242.982 67.0311 243.218 64.9681 244.501 64.2579C245.783 63.5139 246.897 64.3932 246.897 65.7798Z" fill="#FFB573"/>
<path d="M264.181 122.496C272.283 133.826 262.257 142.957 266.139 191.759C267.692 211.037 266.848 254.597 266.848 254.597H258.341C258.341 254.597 252.738 209.481 249.699 189.967C245.952 165.819 245.547 122.462 245.547 122.462H264.181V122.496Z" fill="#4B5633"/>
<path opacity="0.3" d="M250.037 142.179C253.008 155.267 250.645 175.864 249.024 184.928C247.303 171.163 246.425 153.306 245.986 140.218C247.505 137.715 248.957 137.546 250.037 142.179Z" fill="#272E18"/>
<path d="M257.126 250.572L268.57 250.944L267.996 254.732H257.16L257.126 250.572Z" fill="#5B6A3B"/>
<path d="M260.265 85.9027C261.278 83.8735 266.746 82.5884 269.751 82.5884L271.979 92.5653C271.979 92.5653 266.004 101.426 263.54 100.479C260.636 99.3969 258.105 90.2655 260.265 85.9027Z" fill="#BBFA34"/>
<path d="M253.952 252.331C253.986 252.297 253.986 252.229 253.952 252.195C253.919 252.128 253.851 252.094 253.784 252.128C253.48 252.162 250.712 252.601 250.341 253.413C250.273 253.582 250.273 253.717 250.374 253.886C250.509 254.157 250.746 254.292 251.016 254.326C251.961 254.36 253.244 253.109 253.952 252.331C253.952 252.365 253.952 252.365 253.952 252.331ZM250.678 253.481C250.948 253.075 252.366 252.669 253.446 252.466C252.467 253.481 251.59 254.022 251.083 253.954C250.914 253.92 250.779 253.853 250.678 253.683C250.611 253.65 250.611 253.582 250.678 253.481C250.644 253.481 250.644 253.514 250.678 253.481Z" fill="#5B6A3B"/>
<path d="M253.953 252.331C253.986 252.331 253.986 252.331 253.953 252.331C253.986 252.263 253.986 252.195 253.953 252.162C253.919 252.094 252.805 250.843 251.792 250.775C251.488 250.741 251.218 250.843 250.982 251.046C250.678 251.316 250.712 251.553 250.78 251.722C251.117 252.364 253.075 252.567 253.885 252.432C253.919 252.398 253.953 252.364 253.953 252.331ZM251.05 251.418C251.083 251.384 251.117 251.35 251.151 251.282C251.32 251.147 251.522 251.079 251.759 251.079C252.434 251.113 253.176 251.823 253.548 252.162C252.67 252.229 251.252 251.959 251.05 251.587C251.016 251.553 250.982 251.485 251.05 251.418Z" fill="#5B6A3B"/>
<path d="M260.468 249.693L254.763 252.229L252.231 246.919L248.923 239.986L248.518 239.175L254.223 236.638L254.662 237.551L257.869 244.281L260.468 249.693Z" fill="#FFB573"/>
<path opacity="0.2" d="M257.868 244.282L252.231 246.953L248.923 240.02L254.662 237.585L257.868 244.282Z" fill="black"/>
<path d="M257.869 122.496C257.869 142.517 241.328 168.863 243.893 187.498C245.21 197.069 257.396 241.204 257.396 241.204L249.801 245.059C249.801 245.059 230.087 208.5 225.631 189.223C220.702 167.882 238.897 122.53 238.897 122.53L257.869 122.496Z" fill="#4B5633"/>
<path d="M253.75 251.451L259.422 247.325C259.624 247.19 259.894 247.19 260.063 247.393L263.979 251.417C264.384 251.823 264.316 252.567 263.81 252.906C261.818 254.326 260.772 254.901 258.274 256.693C256.755 257.809 253.683 260.278 251.59 261.834C249.531 263.356 247.843 261.361 248.586 260.515C251.928 256.795 252.603 254.495 253.143 252.398C253.21 251.992 253.447 251.654 253.75 251.451Z" fill="#263238"/>
<path d="M247.336 242.963L257.869 238.16L259.118 242.185L249.261 246.683L247.336 242.963Z" fill="#5B6A3B"/>
<path d="M239.032 99.5997C236.467 100.31 230.661 91.8887 230.661 91.8887L232.213 80.1194C235.792 80.9311 242.881 83.2646 243.725 85.3615C245.446 89.961 242.037 98.788 239.032 99.5997Z" fill="#BBFA34"/>
<path d="M246.425 83.2309C250.172 82.8927 253.649 83.028 257.902 83.2309C263.337 83.5015 268.637 84.6513 268.637 84.6513C263.708 105.823 263.742 112.181 264.147 122.53C259.252 122.53 248.889 122.53 238.829 122.53C232.888 85.9027 235.859 84.8543 235.859 84.8543C235.859 84.8543 241.496 83.6706 246.425 83.2309Z" fill="#BBFA34"/>
<path d="M264.552 121.008L265.7 123.274C265.801 123.443 265.565 123.646 265.295 123.646H238.762C238.526 123.646 238.357 123.544 238.323 123.375L238.087 121.109C238.087 120.94 238.256 120.805 238.526 120.805H264.147C264.35 120.839 264.519 120.906 264.552 121.008Z" fill="#407BFF"/>
<path opacity="0.3" d="M264.552 121.008L265.7 123.274C265.801 123.443 265.565 123.646 265.295 123.646H238.762C238.526 123.646 238.357 123.544 238.323 123.375L238.087 121.109C238.087 120.94 238.256 120.805 238.526 120.805H264.147C264.35 120.839 264.519 120.906 264.552 121.008Z" fill="white"/>
<path d="M260.873 123.713L260.535 120.771C260.535 120.67 260.636 120.602 260.771 120.602H261.447C261.582 120.602 261.717 120.67 261.717 120.771L262.054 123.713C262.054 123.815 261.953 123.883 261.818 123.883H261.143C260.974 123.883 260.873 123.815 260.873 123.713Z" fill="#263238"/>
<path d="M244.231 123.713L243.893 120.771C243.893 120.67 243.994 120.602 244.129 120.602H244.805C244.94 120.602 245.075 120.67 245.075 120.771L245.412 123.713C245.412 123.815 245.311 123.883 245.176 123.883H244.501C244.332 123.883 244.231 123.815 244.231 123.713Z" fill="#263238"/>
</svg>
