<svg xmlns="http://www.w3.org/2000/svg" xmlns:xlink="http://www.w3.org/1999/xlink" version="1.1" width="1000" height="1000" viewBox="0 0 1000 1000" xml:space="preserve">
<desc>Created with Fabric.js 3.5.0</desc>
<defs>
</defs>
<rect x="0" y="0" width="100%" height="100%" fill="rgba(255,255,255,0)"/>
<g transform="matrix(45.7934 0 0 45.7934 499.9998 499.9998)" id="452984">
<path style="stroke: rgb(186,250,52); stroke-width: 0.2; stroke-dasharray: none; stroke-linecap: butt; stroke-dashoffset: 0; stroke-linejoin: miter; stroke-miterlimit: 4; is-custom-font: none; font-file-url: none; fill: rgb(186,250,52); fill-rule: nonzero; opacity: 1;" vector-effect="non-scaling-stroke" transform=" translate(-9.9229, -9.926)" d="M 9.925 0 A 9.92 9.92 0 0 0 2.274 16.24 s 0 0.011 0.008 0.016 a 9.922 9.922 0 0 0 3.748 2.8 l 0.049 0.022 c 0.116 0.049 0.234 0.094 0.351 0.139 l 0.14 0.052 q 0.152 0.055 0.307 0.1 l 0.2 0.062 q 0.136 0.041 0.274 0.078 c 0.081 0.022 0.162 0.042 0.243 0.062 s 0.165 0.04 0.248 0.057 s 0.186 0.037 0.28 0.055 c 0.075 0.014 0.151 0.028 0.227 0.041 c 0.1 0.017 0.209 0.03 0.314 0.044 c 0.068 0.009 0.135 0.019 0.2 0.026 c 0.119 0.013 0.239 0.022 0.36 0.03 c 0.056 0 0.111 0.01 0.168 0.013 q 0.264 0.015 0.532 0.015 c 0.179 0 0.357 -0.005 0.533 -0.015 c 0.056 0 0.112 -0.009 0.168 -0.013 c 0.12 -0.009 0.241 -0.017 0.36 -0.03 c 0.068 -0.007 0.136 -0.017 0.2 -0.026 c 0.105 -0.014 0.21 -0.027 0.314 -0.044 c 0.076 -0.012 0.151 -0.027 0.227 -0.041 c 0.094 -0.017 0.187 -0.035 0.28 -0.055 s 0.165 -0.037 0.248 -0.057 s 0.163 -0.04 0.243 -0.062 s 0.183 -0.051 0.274 -0.078 l 0.2 -0.062 q 0.154 -0.05 0.307 -0.1 l 0.14 -0.052 c 0.118 -0.044 0.235 -0.09 0.351 -0.139 l 0.049 -0.022 a 9.925 9.925 0 0 0 3.748 -2.8 s 0 -0.011 0.008 -0.016 A 9.921 9.921 0 0 0 9.925 0 Z m 4.022 18.269 l -0.015 0.007 c -0.118 0.057 -0.238 0.11 -0.359 0.163 l -0.082 0.035 q -0.159 0.066 -0.321 0.127 l -0.135 0.049 c -0.1 0.034 -0.192 0.067 -0.288 0.1 l -0.181 0.055 c -0.086 0.026 -0.172 0.051 -0.26 0.074 s -0.148 0.037 -0.222 0.055 s -0.155 0.037 -0.234 0.054 s -0.172 0.034 -0.258 0.049 c -0.07 0.013 -0.139 0.026 -0.21 0.038 c -0.1 0.015 -0.195 0.027 -0.292 0.04 c -0.062 0.008 -0.123 0.017 -0.186 0.024 c -0.111 0.012 -0.224 0.02 -0.336 0.027 c -0.05 0 -0.1 0.009 -0.15 0.012 q -0.246 0.013 -0.493 0.013 t -0.492 -0.013 c -0.05 0 -0.1 -0.008 -0.15 -0.012 c -0.112 -0.008 -0.225 -0.016 -0.336 -0.027 c -0.063 -0.007 -0.124 -0.016 -0.186 -0.024 c -0.1 -0.012 -0.2 -0.024 -0.292 -0.04 c -0.07 -0.011 -0.14 -0.025 -0.21 -0.038 C 8.172 19.019 8.086 19 8 18.986 s -0.156 -0.035 -0.234 -0.054 s -0.148 -0.035 -0.222 -0.055 s -0.174 -0.048 -0.26 -0.074 L 7.1 18.748 q -0.145 -0.047 -0.288 -0.1 L 6.68 18.6 q -0.162 -0.061 -0.321 -0.127 l -0.082 -0.035 c -0.121 -0.052 -0.241 -0.106 -0.36 -0.163 L 5.9 18.269 a 9.308 9.308 0 0 1 -3 -2.314 a 7.3 7.3 0 0 1 4.779 -5.009 c 0.046 0.028 0.094 0.053 0.141 0.08 l 0.083 0.047 c 0.1 0.052 0.2 0.1 0.3 0.145 c 0.078 0.034 0.159 0.064 0.24 0.093 l 0.048 0.018 a 4.222 4.222 0 0 0 2.861 0 l 0.048 -0.018 c 0.081 -0.03 0.162 -0.059 0.24 -0.093 c 0.1 -0.044 0.2 -0.093 0.3 -0.145 l 0.083 -0.047 c 0.047 -0.026 0.1 -0.052 0.142 -0.08 a 7.3 7.3 0 0 1 4.779 5.009 A 9.317 9.317 0 0 1 13.947 18.269 Z M 6.286 7.278 A 3.639 3.639 0 1 1 11.9 10.328 a 3.5 3.5 0 0 1 -0.405 0.227 l -0.049 0.024 a 3.722 3.722 0 0 1 -3.05 0 l -0.049 -0.024 a 3.477 3.477 0 0 1 -0.405 -0.227 A 3.637 3.637 0 0 1 6.286 7.278 Z m 11.159 8.047 A 7.971 7.971 0 0 0 12.8 10.471 a 4.3 4.3 0 1 0 -5.744 0 a 7.972 7.972 0 0 0 -4.647 4.855 a 9.261 9.261 0 1 1 16.783 -5.4 A 9.211 9.211 0 0 1 17.445 15.325 Z" stroke-linecap="round"/>
</g>
</svg>